<svg xmlns="http://www.w3.org/2000/svg" viewBox="0 0 800 800" width="100%" height="100%">
  <rect width="800" height="800" fill="#0d1117" rx="24"/>
  <circle cx="400" cy="400" r="300" fill="none" stroke="#333" stroke-width="1.5" stroke-dasharray="6 6" opacity="0.5"/>
  <ellipse cx="400" cy="620" rx="240" ry="35" fill="#000" opacity="0.7"/>
  <rect x="260" y="340" width="280" height="200" rx="70" fill="#1b1f24" stroke="#444" stroke-width="2"/>
  <circle cx="400" cy="455" r="4" fill="#00d2ff"/>
  <text x="400" y="385" font-family="sans-serif" font-size="14" font-weight="800" fill="#8b949e" letter-spacing="4" text-anchor="middle">PULSE AUDIO</text>
  <g transform="translate(210, 180) rotate(-15)">
    <rect x="45" y="110" width="28" height="140" rx="14" fill="#1b1f24" stroke="#555" stroke-width="1.5"/>
    <rect x="47" y="236" width="24" height="8" rx="4" fill="#00d2ff"/>
    <ellipse cx="60" cy="100" rx="45" ry="38" fill="#1b1f24"/>
    <ellipse cx="30" cy="95" rx="26" ry="22" fill="#111"/>
  </g>
  <g transform="translate(460, 175) rotate(15)">
    <rect x="45" y="110" width="28" height="140" rx="14" fill="#1b1f24" stroke="#555" stroke-width="1.5"/>
    <rect x="47" y="236" width="24" height="8" rx="4" fill="#00d2ff"/>
    <ellipse cx="58" cy="100" rx="45" ry="38" fill="#1b1f24"/>
    <ellipse cx="88" cy="95" rx="26" ry="22" fill="#111"/>
  </g>
  <text x="400" y="730" font-family="sans-serif" font-size="15" font-weight="700" fill="#00d2ff" letter-spacing="3" text-anchor="middle">MIDNIGHT OBSIDIAN - MATDE BLACK</text>
</svg>